<svg version="1.1" xmlns="http://www.w3.org/2000/svg" xmlns:xlink="http://www.w3.org/1999/xlink" width="111.56632" height="111.8211" viewBox="0,0,111.56632,111.8211"><defs><linearGradient x1="234.71777" y1="129.27555" x2="234.71777" y2="233.27555" gradientUnits="userSpaceOnUse" id="color-1"><stop offset="0" stop-color="#008cff"/><stop offset="1" stop-color="#61dbff"/></linearGradient><linearGradient x1="234.71777" y1="129.27555" x2="234.71777" y2="233.27555" gradientUnits="userSpaceOnUse" id="color-2"><stop offset="0" stop-color="#008cff"/><stop offset="1" stop-color="#61daff"/></linearGradient></defs><g transform="translate(-184.02799,-123.94492)"><g data-paper-data="{&quot;isPaintingLayer&quot;:true}" fill-rule="nonzero" stroke-linecap="round" stroke-linejoin="miter" stroke-miterlimit="10" stroke-dasharray="" stroke-dashoffset="0" style="mix-blend-mode: normal"><path d="M206.8965,152.29241l40.88074,-25.36211l45.17754,31.04564l-4.98022,48.13081l-30.74497,26.96296l-39.18198,-7.94586l-31.00239,-28.73302z" fill="url(#color-1)" stroke="url(#color-2)" stroke-width="5"/><path d="M234.95901,182.39467l18.93129,-30.65427c0,0 20.21408,33.68218 19.82733,35.14947c-0.39223,1.48808 -29.44785,25.57371 -30.99906,25.73182c-1.4102,0.14374 -13.45002,-12.88576 -14.8795,-13.52168c-1.48046,-0.65859 -18.49441,-2.93861 -17.91149,-4.80992c0.5923,-1.90142 18.88053,-30.13194 18.88053,-30.13194" fill="none" stroke="#ffffff" stroke-width="7.5"/></g></g></svg>